<?xml version="1.0" encoding="UTF-8"?>
<svg width="1000px" height="1000px" viewBox="0 0 1000 1000" version="1.1" xmlns="http://www.w3.org/2000/svg" xmlns:xlink="http://www.w3.org/1999/xlink">
    <!-- Generator: Sketch 42 (36781) - http://www.bohemiancoding.com/sketch -->
    <title>Group 2</title>
    <desc>Created with Sketch.</desc>
    <defs></defs>
    <g id="Page-1" stroke="none" stroke-width="1" fill="none" fill-rule="evenodd">
        <g id="Group-2">
            <path d="M218.9014,390.797252 L218.9014,1000 L91.2479785,1000 C40.9365931,1000 0,958.619588 0,907.97252 L0,482.664962 C0,432.017894 40.9365931,390.797252 91.2479785,390.797252 L218.9014,390.797252 Z M982.478234,572.615434 C978.728317,579.325771 975.134647,585.237258 971.853469,590.669436 C956.072569,617.351015 949.978954,627.41652 952.010159,660.488896 C952.478899,670.554402 953.885117,680.779677 955.291336,690.845183 C960.447472,730.148586 967.009827,778.878415 929.666904,824.412846 C904.354965,855.727752 900.917541,873.142675 898.573843,884.80588 C897.480117,890.238057 896.386391,895.989775 893.573954,901.741492 C862.168399,965.329925 805.138413,1000 732.171279,1000 L265.775362,1000 L265.775362,390.797252 L292.649767,390.797252 C321.242883,390.797252 384.678978,329.445598 446.708854,241.731906 C470.302081,208.49976 470.302081,200.671034 470.302081,139.95846 C470.302081,61.5114236 521.394699,0 586.549505,0 C645.45445,0 714.046681,34.5103052 714.046681,131.490653 C714.046681,190.285988 696.859562,299.728391 687.953509,352.132929 C722.015254,351.334079 780.138967,350.215689 832.950297,350.215689 C895.292666,350.215689 950.291447,380.891516 979.978289,432.497204 C1005.75897,477.392555 1006.69645,529.797092 982.478234,572.615434 L982.478234,572.615434 Z" id="Shape" fill="#000000" fill-rule="nonzero"></path>
            <g id="paper-plane" transform="translate(650.345429, 790.500000) rotate(360.000000) translate(-650.345429, -790.500000) translate(500.000000, 657.000000)" fill-rule="nonzero" fill="#D81E06">
                <g id="Group" transform="translate(-0.000000, 0.000000)">
                    <polygon id="Shape" points="0 0.24140625 194.044336 246.032227 211.293164 187.509961"></polygon>
                    <polygon id="Shape" points="135.626953 120.447656 122.306836 155.163867 194.044336 246.032227 211.293164 187.509961"></polygon>
                    <polygon id="Shape" points="194.044336 246.032227 176.180273 202.294336 0 0.24140625 156.468164 215.230664"></polygon>
                    <path d="M176.180273,202.294336 L75.1535156,266.35957 L0,0.24140625 L176.180273,202.294336 Z M211.293164,187.509961 L0,0.24140625 L300,148.700977 L211.293164,187.509961 Z" id="Shape"></path>
                    <path d="M107.019141,122.977734 L72.5115234,257.00625 L75.1535156,266.35957 L176.276367,202.217578 L107.019141,122.977734 Z M287.652539,142.591406 L135.626953,120.447656 L211.219922,187.757812 L300,148.700977 L287.652539,142.591406 Z" id="Shape"></path>
                    <path d="M107.019141,122.977734 L72.5115234,257.00625 L112.09043,128.780273 L107.019141,122.977734 Z M135.626953,120.447656 L142.36875,126.451172 L287.652539,142.591406 L135.626953,120.447656 Z" id="Shape"></path>
                    <polygon id="Shape" points="176.276367 202.217578 156.244922 214.924219 171.574805 227.613281"></polygon>
                    <path d="M7.44960937,26.6214844 L13.4800781,15.7007812 L0,0.24140625 L7.44960937,26.6214844 Z M16.3535156,14.7351562 L29.9654297,15.0703125 L0,0.24140625 L16.3535156,14.7351562 Z" id="Shape"></path>
                </g>
            </g>
            <text id="R" font-family="PingFangSC-Regular, PingFang SC" font-size="130" font-weight="normal" fill="#FFFFFF">
                <tspan x="317" y="540">Remember</tspan>
            </text>
        </g>
    </g>
</svg>